# xmcd CD database file
#
# Track frame offsets:
#	150
#	13161
#	26971
#	38957
#	56589
#	65296
#	77061
#	92951
#	103761
#	114558
#	124292
#	137046
#
# Disc length: 1962 seconds
#
# Revision: 0
# Processed by: cddbd v1.5.2PL0 Copyright (c) Steve Scherf et al.
# Submitted via: CDex 1.70beta3
#
DISCID=aa07a80c
DTITLE=Os Cinco-Pados - Os Cinco-Pados
DYEAR=1964
DGENRE=Jazz
TTITLE0=Berimbau
TTITLE1=Milestones
TTITLE2=Amanhecendo
TTITLE3=Chantili Com Carne
TTITLE4=Bossa-Banca
TTITLE5=Barquinho
TTITLE6=Jacqueline
TTITLE7=A Fonte
TTITLE8=Sete Contos
TTITLE9=Sonho E Visão
TTITLE10=Mania De Maria
TTITLE11=Menina Flor
EXTD=YEAR: 1964
EXTT0=
EXTT1=
EXTT2=
EXTT3=
EXTT4=
EXTT5=
EXTT6=
EXTT7=
EXTT8=
EXTT9=
EXTT10=
EXTT11=
PLAYORDER=
